# AST/ASF file generated using VICON BodyLanguage
# -----------------------------------------------
:version 1.10
:name VICON
:units
  mass 1.0
  length 0.45
  angle deg
:documentation
   .ast/.asf automatically generated from VICON data using
   VICON BodyBuilder and BodyLanguage model FoxedUp or BRILLIANT.MOD
:root
   order TX TY TZ RX RY RZ
   axis XYZ
   position 0 0 0  
   orientation 0 0 0 
:bonedata
  begin
     id 1 
     name lhipjoint
     direction 0.567725 -0.736092 0.368589 
     length 2.42353 
     axis 0 0 0  XYZ
  end
  begin
     id 2 
     name lfemur
     direction 0.34202 -0.939693 0  
     length 7.24894  
     axis 0 0 20  XYZ
    dof rx ry rz
    limits (-160.0 20.0)
           (-70.0 70.0)
           (-60.0 70.0)
  end
  begin
     id 3 
     name ltibia
     direction 0.34202 -0.939693 0   
     length 7.6997   
     axis 0 0 20   XYZ
    dof rx
    limits (-10.0 170.0)
  end
  begin
     id 4 
     name lfoot
     direction 0.100767 -0.276854 0.955614   
     length 2.37556   
     axis -90 7.62852e-016 20   XYZ
    dof rx rz
    limits (-45.0 90.0)
           (-70.0 20.0)
  end
  begin
     id 5 
     name ltoes
     direction 1.53592e-011 -4.21894e-011 1   
     length 1.18363   
     axis -90 7.62852e-016 20   XYZ
    dof rx
    limits (-90.0 20.0)
  end
  begin
     id 6 
     name rhipjoint
     direction -0.556459 -0.742938 0.372017   
     length 2.4012  
     axis 0 0 0  XYZ 
  end
  begin
     id 7 
     name rfemur
     direction -0.34202 -0.939693 0   
     length 7.5119   
     axis 0 0 -20   XYZ
    dof rx ry rz
    limits (-160.0 20.0)
           (-70.0 70.0)
           (-70.0 60.0)
  end
  begin
     id 8 
     name rtibia
     direction -0.34202 -0.939693 0   
     length 7.50155   
     axis 0 0 -20   XYZ
    dof rx
    limits (-10.0 170.0)
 end
 begin
     id 9 
     name rfoot
     direction -0.118427 -0.325376 0.938139   
     length 2.32487  
     axis -90 -7.62852e-016 -20   XYZ
    dof rx rz
    limits (-45.0 90.0)
           (-20.0 70.0)
  end
  begin
     id 10 
     name rtoes
     direction -1.53525e-011 -4.21868e-011 1   
     length 1.15233   
     axis -90 -7.62852e-016 -20   XYZ
    dof rx
    limits (-90.0 20.0)
  end
  begin
     id 11 
     name lowerback
     direction 0.0287568 0.999577 -0.00434502   
     length 2.15243   
     axis 0 0 0   XYZ
    dof rx ry rz
    limits (-20.0 45.0)
           (-30.0 30.0)
           (-30.0 30.0)
  end
  begin
     id 12 
     name upperback
     direction 0.0294009 0.99956 0.00404628   
     length 2.15427   
     axis 0 0 0   XYZ
    dof rx ry rz
    limits (-20.0 45.0)
           (-30.0 30.0)
           (-30.0 30.0)
  end
  begin
     id 13 
     name thorax
     direction 0.0151014 0.999868 0.0059419   
     length 2.14898   
     axis 0 0 0   XYZ
    dof rx ry rz
    limits (-20.0 45.0)
           (-30.0 30.0)
           (-30.0 30.0)
  end
  begin
     id 14 
     name lowerneck
     direction -0.0249197 0.989906 0.139515   
     length 1.6861   
     axis 0 0 0   XYZ
    dof rx ry rz
    limits (-20.0 45.0)
           (-30.0 30.0)
           (-30.0 30.0)
  end
  begin
     id 15 
     name upperneck
     direction 0.0438463 0.988795 -0.142693   
     length 1.71276   
     axis 0 0 0   XYZ
    dof rx ry rz
    limits (-20.0 45.0)
           (-30.0 30.0)
           (-30.0 30.0)
  end
  begin
     id 16
     name head
     direction 0.0148499 0.997845 -0.0639186  
     length 1.7209  
     axis 0 0 0   XYZ
    dof rx ry rz
    limits (-20.0 45.0)
           (-30.0 30.0)
           (-30.0 30.0)
  end
  begin
     id 17 
     name lclavicle
     direction 0.940298 0.323464 -0.105876  
     length 3.9048  
     axis 0 0 0   XYZ
    dof ry rz
    limits (-20.0 10.0)
           (0.0 20.0)
  end
  begin
     id 18 
     name lhumerus
     direction 1 -4.48954e-011 -4.9675e-028   
     length 4.6851   
     axis 180 -30 -90   XYZ
    dof rx ry rz
    limits (-60.0 90.0)
           (-90.0 90.0)
           (-90.0 90.0)
  end
  begin
     id 19
     name lradius
     direction 1 -4.48992e-011 -1.03359e-026   
     length 3.39626   
     axis 180 -30 -90   XYZ
    dof rx
    limits (-10.0 170.0)
  end
  begin
     id 20
     name lwrist
     direction 1 -4.48906e-011 -1.67336e-026   
     length 1.69813   
     axis 9.90442e-015 90 90   XYZ
    dof ry
    limits (-180.0 0.0)
 end
  begin
     id 21 
     name lhand
     direction 1 -4.49006e-011 -3.34673e-026   
     length 0.486078   
     axis 2.1355e-014 90 90   XYZ
    dof rx rz
    limits (-90.0 90.0)
           (-45.0 45.0)
  end
  begin
     id 22 
     name lfingers
     direction 1 -4.48992e-011 -6.69345e-026   
     length 0.391889   
     axis 4.27099e-014 90 90   XYZ
    dof rx
    limits (0.0 90.0)
  end
  begin
     id 23
     name lthumb
     direction 0.707107 -6.34926e-011 0.707107   
     length 0.562676   
     axis -90 45 2.85299e-015   XYZ
    dof rx rz
    limits (-45.0 45.0)
           (-45.0 45.0)
  end
  begin
     id 24 
     name rclavicle
     direction -0.882459 0.414895 -0.221648   
     length 3.44646  
     axis 0 0 0   XYZ 
    dof ry rz
    limits (-10.0 20.0)
           (-20.0 0.0)
  end
  begin
     id 25 
     name rhumerus
     direction -1 -4.48962e-011 -2.37984e-027  
     length 5.55576   
     axis 180 30 90   XYZ
    dof rx ry rz
    limits (-90.0 60.0)
           (-90.0 90.0)
           (-90.0 90.0)
  end
  begin
     id 26 
     name rradius
     direction -1 -4.48982e-011 -6.86791e-027   
     length 3.32774   
     axis 180 30 90   XYZ
    dof rx
    limits (-10.0 170.0)
  end
  begin
     id 27 
     name rwrist
     direction -1 -4.48961e-011 -1.67336e-026   
     length 1.66387   
     axis 9.90442e-015 -90 -90   XYZ
    dof ry
    limits (-180.0 0.0)
  end
  begin
     id 28
     name rhand
     direction -1 -4.4897e-011 -3.34673e-026   
     length 0.507628   
     axis 2.1355e-014 -90 -90   XYZ
    dof rx rz
    limits (-90.0 90.0)
           (-45.0 45.0)
  end
  begin
     id 29
     name rfingers
     direction -1 -4.48854e-011 -6.69345e-026   
     length 0.409263   
     axis 4.27099e-014 -90 -90   XYZ
    dof rx
    limits (0.0 90.0)
  end
  begin
     id 30
     name rthumb
     direction -0.707107 -6.34913e-011 0.707107   
     length 0.587622   
     axis -90 -45 -2.85299e-015   XYZ
    dof rx rz
    limits (-45.0 45.0)
           (-45.0 45.0)
  end
:hierarchy
  begin
    root lhipjoint rhipjoint lowerback
    lhipjoint lfemur
    lfemur ltibia
    ltibia lfoot
    lfoot ltoes
    rhipjoint rfemur
    rfemur rtibia
    rtibia rfoot
    rfoot rtoes
    lowerback upperback
    upperback thorax
    thorax lowerneck lclavicle rclavicle
    lowerneck upperneck
    upperneck head
    lclavicle lhumerus
    lhumerus lradius
    lradius lwrist
    lwrist lhand lthumb
    lhand lfingers
    rclavicle rhumerus
    rhumerus rradius
    rradius rwrist
    rwrist rhand rthumb
    rhand rfingers
  end

#!OML:ASF E:\motion texture\Top Level 1\Subject 1\Session 1\male.ASF
:FULLY-SPECIFIED
:DEGREES
29
root 41.5691 17.8187 6.2835 109.16 -84.505 -99.9237
lowerback -6.20663 -0.251192 3.55002
upperback -2.66301 -0.67754 2.88249
thorax 0.730782 -0.392346 0.927621
lowerneck -14.9892 -3.46261 -7.68748
upperneck 20.2136 -4.49903 6.05846
head 9.13102 -2.13252 2.78932
rclavicle 7.40473e-015 -2.46493e-014
rhumerus -26.4849 -4.28092 -80.5641
rradius 35.2492
rwrist 3.45521
rhand -14.1009 -26.8923
rfingers 7.12502
rthumb 12.0318 -56.5265
lclavicle 7.40473e-015 -2.46493e-014
lhumerus -31.5198 9.83026 85.4512
lradius 37.7151
lwrist -15.8509
lhand -8.85938 25.7581
lfingers 7.12502
lthumb 17.0818 55.0272
rfemur -9.6739 4.35903 25.0394
rtibia 14.1196
rfoot -8.34643 -13.3044
rtoes 10.3675
lfemur -6.86843 -5.79315 -12.8741
ltibia 9.46087
lfoot -8.85396 5.86423
ltoes 1.09836
30
root 41.5682 17.8181 6.27746 109.687 -84.5024 -100.442
lowerback -6.20284 -0.25804 3.52525
upperback -2.67075 -0.684491 2.8745
thorax 0.720859 -0.395825 0.932841
lowerneck -15.0256 -3.44755 -7.67331
upperneck 20.2395 -4.48817 6.09146
head 9.14617 -2.12253 2.79972
rclavicle -7.93275e-015 1.70955e-014
rhumerus -26.5139 -4.14566 -80.6884
rradius 35.3531
rwrist 3.4365
rhand -14.0958 -26.8081
rfingers 7.12502
rthumb 12.0367 -56.4419
lclavicle -7.93275e-015 1.70955e-014
lhumerus -31.5301 10.0171 85.3181
lradius 37.5122
lwrist -15.8019
lhand -8.85986 25.8052
lfingers 7.12502
lthumb 17.0813 55.0743
rfemur -9.71228 4.36037 25.0527
rtibia 14.1755
rfoot -8.37515 -13.259
rtoes 10.3871
lfemur -6.87221 -5.78382 -12.8618
ltibia 9.47538
lfoot -8.87617 5.90056
ltoes 1.07292
31
root 41.5673 17.8174 6.27141 110.198 -84.5006 -100.944
lowerback -6.19795 -0.265834 3.49965
upperback -2.67794 -0.692602 2.86671
thorax 0.710887 -0.399861 0.938664
lowerneck -15.0545 -3.43196 -7.66169
upperneck 20.2585 -4.47641 6.12571
head 9.15756 -2.11226 2.81111
rclavicle -6.22444e-015 2.98177e-014
rhumerus -26.552 -4.02501 -80.8047
rradius 35.4286
rwrist 3.43135
rhand -14.0652 -26.7654
rfingers 7.12502
rthumb 12.0663 -56.3975
lclavicle -6.22444e-015 2.98177e-014
lhumerus -31.5456 10.2485 85.1649
lradius 37.2688
lwrist -15.7706
lhand -8.80755 25.8376
lfingers 7.12502
lthumb 17.1317 55.1023
rfemur -9.75477 4.3589 25.0649
rtibia 14.2372
rfoot -8.40682 -13.2132
rtoes 10.4079
lfemur -6.87772 -5.77279 -12.8502
ltibia 9.49062
lfoot -8.89882 5.9333
ltoes 1.04991
32
root 41.5665 17.8167 6.26533 110.69 -84.4998 -101.425
lowerback -6.18944 -0.273862 3.47379
upperback -2.68249 -0.700794 2.85803
thorax 0.701627 -0.40386 0.943722
lowerneck -15.0901 -3.41814 -7.64829
upperneck 20.2748 -4.46601 6.15697
head 9.16928 -2.10257 2.82093
rclavicle 2.52829e-015 -9.54166e-015
rhumerus -26.5933 -3.92285 -80.9142
rradius 35.4747
rwrist 3.43643
rhand -14.0303 -26.7317
rfingers 7.12502
rthumb 12.0998 -56.3618
lclavicle 2.52829e-015 -9.54166e-015
lhumerus -31.5585 10.5011 85.0051
lradius 36.9857
lwrist -15.6929
lhand -8.79025 25.901
lfingers 7.12502
lthumb 17.1483 55.1643
rfemur -9.80231 4.35541 25.0762
rtibia 14.3057
rfoot -8.44151 -13.1686
rtoes 10.4268
lfemur -6.88564 -5.76036 -12.839
ltibia 9.50683
lfoot -8.92206 5.9625
ltoes 1.02794
33
root 41.5657 17.8159 6.2592 111.166 -84.5 -101.89
lowerback -6.17745 -0.282315 3.44746
upperback -2.68666 -0.709292 2.84866
thorax 0.690824 -0.408001 0.948352
lowerneck -15.1243 -3.40406 -7.63556
upperneck 20.2883 -4.45524 6.18925
head 9.17977 -2.09264 2.83125
rclavicle -1.07468e-015 -2.80286e-014
rhumerus -26.6422 -3.83878 -81.0162
rradius 35.4913
rwrist 3.45432
rhand -13.9903 -26.7101
rfingers 7.12502
rthumb 12.1385 -56.3379
lclavicle -1.07468e-015 -2.80286e-014
lhumerus -31.5739 10.7856 84.832
lradius 36.6626
lwrist -15.5991
lhand -8.76449 25.9726
lfingers 7.12502
lthumb 17.1731 55.2337
rfemur -9.85458 4.35066 25.0866
rtibia 14.3807
rfoot -8.47957 -13.1249
rtoes 10.447
lfemur -6.89585 -5.7458 -12.828
ltibia 9.52408
lfoot -8.94572 5.98808
ltoes 1.00547
34
root 41.5649 17.8151 6.25301 111.615 -84.5022 -102.326
lowerback -6.16682 -0.291586 3.42068
upperback -2.68754 -0.718939 2.83787
thorax 0.684152 -0.412598 0.951655
lowerneck -15.158 -3.39027 -7.61969
upperneck 20.2954 -4.44429 6.21772
head 9.1878 -2.08268 2.83971
rclavicle -4.73356e-015 -1.61016e-014
rhumerus -26.6935 -3.77321 -81.1118
rradius 35.4769
rwrist 3.4847
rhand -13.9446 -26.6938
rfingers 7.12502
rthumb 12.1825 -56.3191
lclavicle -4.73356e-015 -1.61016e-014
lhumerus -31.5861 11.1023 84.6458
lradius 36.2994
lwrist -15.4901
lhand -8.73076 26.0556
lfingers 7.12502
lthumb 17.2056 55.3139
rfemur -9.91144 4.34375 25.0953
rtibia 14.4613
rfoot -8.52029 -13.0835
rtoes 10.4635
lfemur -6.90914 -5.73025 -12.8185
ltibia 9.5427
lfoot -8.9698 6.0097
ltoes 0.98132
35
root 41.5641 17.8143 6.24675 112.047 -84.5057 -102.743
lowerback -6.1526 -0.301594 3.39261
upperback -2.68929 -0.729255 2.82698
thorax 0.674601 -0.417553 0.955576
lowerneck -15.1871 -3.37599 -7.60456
upperneck 20.3004 -4.4327 6.24598
head 9.19424 -2.07258 2.84832
rclavicle 5.03795e-015 -4.45278e-014
rhumerus -26.7546 -3.72327 -81.1993
rradius 35.4328
rwrist 3.52637
rhand -13.8948 -26.6814
rfingers 7.12502
rthumb 12.2305 -56.3038
lclavicle 5.03795e-015 -4.45278e-014
lhumerus -31.6027 11.4521 84.4467
lradius 35.8975
lwrist -15.366
lhand -8.69036 26.1529
lfingers 7.12502
lthumb 17.2445 55.4078
rfemur -9.97226 4.33577 25.1031
rtibia 14.5475
rfoot -8.56363 -13.0432
rtoes 10.481
lfemur -6.92421 -5.7129 -12.8094
ltibia 9.56199
lfoot -8.99411 6.02758
ltoes 0.956867
36
root 41.5633 17.8134 6.2404 112.431 -84.5118 -103.112
lowerback -6.13486 -0.313307 3.36255
upperback -2.69048 -0.741506 2.8158
thorax 0.663679 -0.423444 0.960223
lowerneck -15.2197 -3.36156 -7.59265
upperneck 20.307 -4.42085 6.27818
head 9.20198 -2.06212 2.85888
rclavicle -1.73315e-015 1.55052e-014
rhumerus -26.8217 -3.68938 -81.2789
rradius 35.3577
rwrist 3.57968
rhand -13.8397 -26.6934
rfingers 7.12502
rthumb 12.2836 -56.3126
lclavicle -1.73315e-015 1.55052e-014
lhumerus -31.6198 11.8347 84.2355
lradius 35.4572
lwrist -15.2282
lhand -8.64355 26.2658
lfingers 7.12502
lthumb 17.2895 55.5168
rfemur -10.0356 4.32527 25.1096
rtibia 14.6377
rfoot -8.6098 -13.0068
rtoes 10.4995
lfemur -6.94129 -5.69491 -12.8011
ltibia 9.58232
lfoot -9.01884 6.03984
ltoes 0.932855
37
root 41.5624 17.8125 6.23398 112.81 -84.519 -103.473
lowerback -6.11636 -0.325438 3.33131
upperback -2.69231 -0.754203 2.80461
thorax 0.651704 -0.429566 0.965507
lowerneck -15.2456 -3.34635 -7.57813
upperneck 20.3103 -4.40781 6.30564
head 9.20711 -2.05152 2.86752
rclavicle 2.67117e-015 -1.05356e-014
rhumerus -26.8964 -3.67153 -81.35
rradius 35.2524
rwrist 3.64504
rhand -13.7795 -26.7151
rfingers 7.12502
rthumb 12.3417 -56.3308
lclavicle 2.67117e-015 -1.05356e-014
lhumerus -31.6388 12.252 84.012
lradius 34.9793
lwrist -15.0815
lhand -8.59206 26.4052
lfingers 7.12502
lthumb 17.3391 55.6518
rfemur -10.1053 4.31257 25.1151
rtibia 14.7347
rfoot -8.6589 -12.9701
rtoes 10.517
lfemur -6.96202 -5.67443 -12.7934
ltibia 9.60369
lfoot -9.04403 6.04895
ltoes 0.906566
38
root 41.5615 17.8116 6.22746 113.161 -84.5277 -103.805
lowerback -6.09744 -0.338885 3.29988
upperback -2.69358 -0.768613 2.79282
thorax 0.64005 -0.436521 0.970174
lowerneck -15.2678 -3.33034 -7.56321
upperneck 20.3116 -4.39391 6.33291
head 9.21079 -2.04057 2.87617
rclavicle 6.44187e-015 -3.1408e-014
rhumerus -26.9765 -3.66961 -81.414
rradius 35.1155
rwrist 3.72268
rhand -13.7361 -26.7199
rfingers 7.12502
rthumb 12.3835 -56.3331
lclavicle 6.44187e-015 -3.1408e-014
lhumerus -31.6582 12.7048 83.7747
lradius 34.4647
lwrist -14.9291
lhand -8.53547 26.5689
lfingers 7.12502
lthumb 17.3936 55.8107
rfemur -10.1788 4.29677 25.12
rtibia 14.8367
rfoot -8.71037 -12.9346
rtoes 10.5281
lfemur -6.98516 -5.65273 -12.7858
ltibia 9.62601
lfoot -9.06978 6.05405
ltoes 0.881497
39
root 41.5606 17.8106 6.22084 113.486 -84.5381 -104.11
lowerback -6.07965 -0.353006 3.26891
upperback -2.69259 -0.784005 2.77944
thorax 0.631345 -0.44389 0.972865
lowerneck -15.2905 -3.31381 -7.54589
upperneck 20.3113 -4.37955 6.3594
head 9.21388 -2.02926 2.88418
rclavicle 2.14936e-015 -1.37161e-014
rhumerus -27.0583 -3.68759 -81.471
rradius 34.9469
rwrist 3.81356
rhand -13.6948 -26.7099
rfingers 7.12502
rthumb 12.4233 -56.3207
lclavicle 2.14936e-015 -1.37161e-014
lhumerus -31.6741 13.1904 83.5244
lradius 33.9153
lwrist -14.7734
lhand -8.4773 26.7607
lfingers 7.12502
lthumb 17.4495 55.9975
rfemur -10.2565 4.27889 25.1242
rtibia 14.9439
rfoot -8.76442 -12.9007
rtoes 10.5369
lfemur -7.01115 -5.62951 -12.7783
ltibia 9.64991
lfoot -9.09653 6.05457
ltoes 0.857694
40
root 41.5596 17.8096 6.21411 113.778 -84.5504 -104.38
lowerback -6.06239 -0.36859 3.23687
upperback -2.6902 -0.801339 2.76592
thorax 0.624372 -0.452175 0.97588
lowerneck -15.3114 -3.29609 -7.52728
upperneck 20.31 -4.36353 6.38423
head 9.2161 -2.01729 2.89162
rclavicle -1.21259e-014 2.78299e-014
rhumerus -27.1433 -3.72158 -81.5198
rradius 34.7467
rwrist 3.91771
rhand -13.6423 -26.7222
rfingers 7.12502
rthumb 12.474 -56.3299
lclavicle -1.21259e-014 2.78299e-014
lhumerus -31.6884 13.7123 83.2618
lradius 33.3328
lwrist -14.6185
lhand -8.42012 26.9809
lfingers 7.12502
lthumb 17.5046 56.2128
rfemur -10.3371 4.25901 25.1276
rtibia 15.055
rfoot -8.8216 -12.8686
rtoes 10.5516
lfemur -7.03921 -5.60472 -12.7712
ltibia 9.67438
lfoot -9.12327 6.05012
ltoes 0.83194
41
root 41.5585 17.8086 6.20723 114.04 -84.5644 -104.618
lowerback -6.03489 -0.385476 3.20195
upperback -2.69353 -0.819609 2.75363
thorax 0.605878 -0.461095 0.981865
lowerneck -15.3295 -3.27651 -7.50916
upperneck 20.3156 -4.34547 6.40829
head 9.22 -2.00465 2.89924
rclavicle -1.72943e-014 4.39314e-014
rhumerus -27.2413 -3.77052 -81.5572
rradius 34.5164
rwrist 4.03381
rhand -13.598 -26.7212
rfingers 7.12502
rthumb 12.5167 -56.3263
lclavicle -1.72943e-014 4.39314e-014
lhumerus -31.7126 14.2717 82.9854
lradius 32.7201
lwrist -14.4694
lhand -8.36186 27.2287
lfingers 7.12502
lthumb 17.5606 56.4556
rfemur -10.4208 4.23767 25.1305
rtibia 15.1707
rfoot -8.88217 -12.8387
rtoes 10.5653
lfemur -7.06959 -5.5786 -12.7641
ltibia 9.70077
lfoot -9.15136 6.04132
ltoes 0.80461
42
root 41.5573 17.8076 6.20021 114.271 -84.5803 -104.825
lowerback -6.00666 -0.403186 3.16563
upperback -2.69482 -0.838895 2.74107
thorax 0.589111 -0.470446 0.988313
lowerneck -15.3543 -3.25672 -7.48808
upperneck 20.3248 -4.32688 6.42963
head 9.2262 -1.9917 2.90547
rclavicle 1.57785e-015 -1.19271e-014
rhumerus -27.3394 -3.83808 -81.5855
rradius 34.2554
rwrist 4.16291
rhand -13.5482 -26.7336
rfingers 7.12502
rthumb 12.5647 -56.3358
lclavicle 1.57785e-015 -1.19271e-014
lhumerus -31.7323 14.8691 82.6963
lradius 32.0778
lwrist -14.3315
lhand -8.30127 27.4996
lfingers 7.12502
lthumb 17.6189 56.7213
rfemur -10.5075 4.21394 25.1332
rtibia 15.2907
rfoot -8.9455 -12.8108
rtoes 10.5748
lfemur -7.1027 -5.55096 -12.757
ltibia 9.72911
lfoot -9.18059 6.02798
ltoes 0.777293
